<svg id="visual" viewBox="0 0 960 540" width="960" height="540" xmlns="http://www.w3.org/2000/svg" xmlns:xlink="http://www.w3.org/1999/xlink" version="1.1"><rect x="0" y="0" width="960" height="540" fill="#0e2d10"></rect><defs><linearGradient id="grad1_0" x1="43.8%" y1="0%" x2="100%" y2="100%"><stop offset="14.444444444444446%" stop-color="#0e2d10" stop-opacity="1"></stop><stop offset="85.55555555555554%" stop-color="#0e2d10" stop-opacity="1"></stop></linearGradient></defs><defs><linearGradient id="grad2_0" x1="0%" y1="0%" x2="56.3%" y2="100%"><stop offset="14.444444444444446%" stop-color="#0e2d10" stop-opacity="1"></stop><stop offset="85.55555555555554%" stop-color="#0e2d10" stop-opacity="1"></stop></linearGradient></defs><g transform="translate(960, 0)"><path d="M0 432C-63.6 432.7 -127.2 433.3 -165.3 399.1C-203.4 364.9 -216 295.8 -254.6 254.6C-293.2 213.3 -357.8 200 -391.7 162.3C-425.6 124.5 -428.8 62.2 -432 0L0 0Z" fill="#299f1d"></path></g><g transform="translate(0, 540)"><path d="M0 -432C46.4 -397.1 92.8 -362.1 141.2 -340.9C189.6 -319.7 239.9 -312.3 286.4 -286.4C332.9 -260.5 375.5 -216.1 399.1 -165.3C422.7 -114.5 427.4 -57.3 432 0L0 0Z" fill="#299f1d"></path></g></svg>