<svg id="visual" viewBox="0 0 960 540" width="960" height="540" xmlns="http://www.w3.org/2000/svg" xmlns:xlink="http://www.w3.org/1999/xlink" version="1.1"><path d="M0 44L120 60L240 60L360 66L480 66L600 55L720 66L840 44L960 60L960 0L840 0L720 0L600 0L480 0L360 0L240 0L120 0L0 0Z" fill="#002824"></path><path d="M0 190L120 185L240 206L360 228L480 190L600 190L720 163L840 228L960 201L960 58L840 42L720 64L600 53L480 64L360 64L240 58L120 58L0 42Z" fill="#004736"></path><path d="M0 309L120 276L240 309L360 303L480 303L600 266L720 260L840 298L960 271L960 199L840 226L720 161L600 188L480 188L360 226L240 204L120 183L0 188Z" fill="#006740"></path><path d="M0 428L120 444L240 401L360 411L480 433L600 444L720 417L840 417L960 444L960 269L840 296L720 258L600 264L480 301L360 301L240 307L120 274L0 307Z" fill="#008940"></path><path d="M0 492L120 498L240 482L360 492L480 492L600 503L720 498L840 471L960 503L960 442L840 415L720 415L600 442L480 431L360 409L240 399L120 442L0 426Z" fill="#00aa34"></path><path d="M0 541L120 541L240 541L360 541L480 541L600 541L720 541L840 541L960 541L960 501L840 469L720 496L600 501L480 490L360 490L240 480L120 496L0 490Z" fill="#06cc00"></path></svg>