<svg id="visual" viewBox="0 0 960 540" width="960" height="540" xmlns="http://www.w3.org/2000/svg" xmlns:xlink="http://www.w3.org/1999/xlink" version="1.1"><rect width="960" height="540" fill="#062a08"></rect><g><g transform="translate(441 384)"><path d="M87 -30.9C97.8 4.8 81.2 46.8 49.1 70.8C17.1 94.9 -30.3 100.9 -58.3 80.5C-86.4 60 -95 13.2 -82.1 -25.5C-69.2 -64.2 -34.6 -94.8 1.8 -95.4C38.1 -95.9 76.2 -66.6 87 -30.9Z" stroke="#1dc000" fill="none" stroke-width="20"></path></g><g transform="translate(204 8)"><path d="M50.7 -15C58.5 7.7 52.8 36.2 35.6 48.6C18.4 61 -10.2 57.3 -30.2 42.5C-50.2 27.8 -61.5 2 -55 -18.7C-48.6 -39.5 -24.3 -55.2 -1.4 -54.8C21.4 -54.3 42.8 -37.6 50.7 -15Z" stroke="#1dc000" fill="none" stroke-width="20"></path></g><g transform="translate(641 168)"><path d="M89.5 -28.6C100 3.3 81.6 45.1 49 69.2C16.4 93.2 -30.2 99.6 -59.4 79C-88.6 58.5 -100.4 11 -87.5 -24C-74.7 -59.1 -37.4 -81.8 1.1 -82.2C39.5 -82.5 78.9 -60.5 89.5 -28.6Z" stroke="#1dc000" fill="none" stroke-width="20"></path></g><g transform="translate(15 519)"><path d="M69.1 -23.8C78.7 7.1 68.2 43.3 42.9 62.5C17.5 81.7 -22.6 84.1 -48 65.7C-73.4 47.4 -83.9 8.3 -73.5 -23.7C-63 -55.8 -31.5 -80.9 -0.9 -80.6C29.8 -80.3 59.5 -54.7 69.1 -23.8Z" stroke="#1dc000" fill="none" stroke-width="20"></path></g><g transform="translate(951 401)"><path d="M86.7 -26.3C97 3.6 79.5 44.4 50.2 64.6C20.9 84.9 -20.1 84.5 -45.5 65.4C-70.9 46.3 -80.6 8.5 -70.4 -21.3C-60.2 -51 -30.1 -72.7 4 -74C38.2 -75.3 76.4 -56.3 86.7 -26.3Z" stroke="#1dc000" fill="none" stroke-width="20"></path></g></g></svg>