<svg id="visual" viewBox="0 0 960 540" width="960" height="540" xmlns="http://www.w3.org/2000/svg" xmlns:xlink="http://www.w3.org/1999/xlink" version="1.1"><rect x="0" y="0" width="960" height="540" fill="#0c3b16"></rect><path d="M357 0L378 0L378 54L482 54L482 108L336 108L336 162L623 162L623 216L528 216L528 270L593 270L593 324L540 324L540 378L577 378L577 432L370 432L370 486L619 486L619 540L0 540L0 486L0 486L0 432L0 432L0 378L0 378L0 324L0 324L0 270L0 270L0 216L0 216L0 162L0 162L0 108L0 108L0 54L0 54L0 0L0 0Z" fill="#00bb2f"></path><path d="M447 0L321 0L321 54L294 54L294 108L340 108L340 162L285 162L285 216L410 216L410 270L373 270L373 324L466 324L466 378L228 378L228 432L385 432L385 486L378 486L378 540L0 540L0 486L0 486L0 432L0 432L0 378L0 378L0 324L0 324L0 270L0 270L0 216L0 216L0 162L0 162L0 108L0 108L0 54L0 54L0 0L0 0Z" fill="#039921"></path><path d="M333 0L272 0L272 54L261 54L261 108L316 108L316 162L277 162L277 216L297 216L297 270L338 270L338 324L159 324L159 378L242 378L242 432L270 432L270 486L273 486L273 540L0 540L0 486L0 486L0 432L0 432L0 378L0 378L0 324L0 324L0 270L0 270L0 216L0 216L0 162L0 162L0 108L0 108L0 54L0 54L0 0L0 0Z" fill="#027815"></path><path d="M139 0L70 0L70 54L50 54L50 108L188 108L188 162L235 162L235 216L134 216L134 270L189 270L189 324L135 324L135 378L71 378L71 432L106 432L106 486L118 486L118 540L0 540L0 486L0 486L0 432L0 432L0 378L0 378L0 324L0 324L0 270L0 270L0 216L0 216L0 162L0 162L0 108L0 108L0 54L0 54L0 0L0 0Z" fill="#00590a"></path></svg>