<svg id="visual" viewBox="0 0 960 540" width="960" height="540" xmlns="http://www.w3.org/2000/svg" xmlns:xlink="http://www.w3.org/1999/xlink" version="1.1"><rect width="960" height="540" fill="#002902"></rect><g><g transform="translate(959 202)"><path d="M0 -101.2L71.6 -71.6L101.2 0L71.6 71.6L0 101.2L-71.6 71.6L-101.2 0L-71.6 -71.6Z" fill="#29a640"></path></g><g transform="translate(822 444)"><path d="M0 -94L66.5 -66.5L94 0L66.5 66.5L0 94L-66.5 66.5L-94 0L-66.5 -66.5Z" fill="#29a640"></path></g><g transform="translate(304 355)"><path d="M0 -96L67.9 -67.9L96 0L67.9 67.9L0 96L-67.9 67.9L-96 0L-67.9 -67.9Z" fill="#29a640"></path></g><g transform="translate(9 527)"><path d="M0 -79L55.9 -55.9L79 0L55.9 55.9L0 79L-55.9 55.9L-79 0L-55.9 -55.9Z" fill="#29a640"></path></g><g transform="translate(578 294)"><path d="M0 -94L66.5 -66.5L94 0L66.5 66.5L0 94L-66.5 66.5L-94 0L-66.5 -66.5Z" fill="#29a640"></path></g><g transform="translate(811 49)"><path d="M0 -44L31.1 -31.1L44 0L31.1 31.1L0 44L-31.1 31.1L-44 0L-31.1 -31.1Z" fill="#29a640"></path></g><g transform="translate(106 2)"><path d="M0 -89L62.9 -62.9L89 0L62.9 62.9L0 89L-62.9 62.9L-89 0L-62.9 -62.9Z" fill="#29a640"></path></g></g></svg>